<svg xmlns:xlink="http://www.w3.org/1999/xlink" xmlns="http://www.w3.org/2000/svg" width="151" height="33" viewBox="0 0 151 33" fill="none">
<path d="M17.8844 12.2772H12.7463L11.9119 17.3247C9.49215 16.9179 7.64856 14.8131 7.64856 12.2778C7.64856 9.45123 9.93993 7.15987 12.7665 7.15987C15.5928 7.15987 17.8841 9.45092 17.8844 12.2772Z" fill="#FF0000"/>
<path fill-rule="evenodd" clip-rule="evenodd" d="M10.1784 0.965552C3.85239 2.38141 -0.121189 8.61691 1.30752 14.8864C2.39 19.6365 6.26444 23.0482 10.8302 23.8069L11.0277 22.6229C9.69417 22.4017 8.4073 21.9293 7.2519 21.2298L8.77131 18.7691C9.60988 19.2762 10.5397 19.6195 11.5017 19.7811L11.6742 18.747C9.12286 18.3205 6.96052 16.4134 6.35508 13.7566C5.5552 10.2466 7.77656 6.76064 11.3184 5.96793C14.8602 5.1752 18.3776 7.37672 19.1775 10.8868C19.2871 11.3676 19.34 11.848 19.3405 12.3211H20.3906C20.3897 11.7651 20.326 11.2095 20.2025 10.6673C20.0484 9.99132 19.8018 9.34621 19.4722 8.72957L22.0178 7.3213L22.0285 7.36827C22.4968 8.20046 22.8412 9.10014 23.053 10.0293C23.2235 10.7779 23.3139 11.5522 23.3102 12.3211H24.5159C24.5153 11.4752 24.4209 10.6165 24.2251 9.75705C22.7964 3.48758 16.5044 -0.450322 10.1784 0.965552ZM13.0427 1.87558C14.8824 1.92812 16.6898 2.44976 18.2669 3.39672L16.7496 5.86682C15.6068 5.17571 14.2965 4.7983 12.9643 4.76101L13.0427 1.87558ZM3.77956 6.86608C4.73712 5.31234 6.10175 4.02172 7.72942 3.14376L9.12283 5.68004C7.94455 6.31847 6.95263 7.25065 6.26261 8.37197L3.77956 6.86608ZM3.55076 17.3926L3.50402 17.2749L3.48512 17.2792C3.0241 16.4355 2.67977 15.536 2.47018 14.6163C2.27767 13.7715 2.19156 12.913 2.21377 12.0497L5.1278 12.1274C5.11107 12.7527 5.17215 13.3702 5.3112 13.9804C5.46518 14.6561 5.71176 15.3012 6.0414 15.9179L6.14098 16.0928L6.18588 16.2899L3.54342 17.4041L3.55076 17.3926Z" fill="#FF0000"/>
<path fill-rule="evenodd" clip-rule="evenodd" d="M66.71 11.5352C64.7692 11.5352 62.9577 13.1 62.6588 15.0295L60.4838 29.0404C60.1865 30.9638 61.5159 32.5286 63.4568 32.5286H95.7476C97.6885 32.5286 99.5092 30.9638 99.8081 29.0404L101.983 15.0295C102.28 13.1 100.951 11.5352 99.0102 11.5352H66.71ZM68.1934 28.6206C69.2963 29.248 70.601 29.5655 72.0983 29.5655C73.6047 29.5655 74.9988 29.248 76.2881 28.6206C77.5928 27.9855 78.6633 27.1108 79.5167 25.9994C80.3793 24.8866 80.9185 23.6241 81.1372 22.2334C81.3544 20.8366 81.2019 19.5726 80.6859 18.4613C80.1775 17.3484 79.3812 16.4752 78.269 15.8401C77.1815 15.2127 75.8845 14.8952 74.378 14.8952C72.8808 14.8952 71.479 15.2127 70.1743 15.8401C68.885 16.4752 67.8052 17.3484 66.9442 18.4613C66.0985 19.5726 65.5594 20.8366 65.3406 22.2334C65.1311 23.6241 65.2682 24.8866 65.7766 25.9994C66.291 27.1108 67.0967 27.9855 68.1934 28.6206ZM74.6445 25.7521C74.0083 26.0941 73.3321 26.2605 72.6143 26.2605C71.898 26.2605 71.2772 26.0941 70.7458 25.7521C70.2144 25.4193 69.8278 24.9507 69.5859 24.3462C69.3441 23.7279 69.2809 23.0196 69.4011 22.2334C69.5305 21.4396 69.8031 20.7404 70.239 20.1374C70.6734 19.5176 71.2048 19.0414 71.841 18.707C72.4695 18.3651 73.1457 18.1987 73.8635 18.1987C74.5798 18.1987 75.2083 18.3651 75.7397 18.707C76.2634 19.0414 76.6501 19.5176 76.8919 20.1374C77.1414 20.7404 77.1985 21.4396 77.0768 22.2334C76.9566 23.0196 76.6747 23.7279 76.2388 24.3462C75.8044 24.9507 75.273 25.4193 74.6445 25.7521ZM95.6675 29.28L97.8503 15.1807H93.9192L92.7516 22.6944L87.6453 15.1807H84.335L82.143 29.28H86.0818L87.2494 21.7647L92.3573 29.28H95.6675Z" fill="#03F295"/>
<path d="M136.554 15.0335H143.302C144.861 15.0335 146.202 15.3327 147.325 15.922C148.441 16.5051 149.257 17.3463 149.758 18.421C150.251 19.5048 150.397 20.7734 150.17 22.2206C149.952 23.6769 149.426 24.9455 148.595 26.0217C147.763 27.1056 146.695 27.9376 145.394 28.5283C144.094 29.1176 142.663 29.4168 141.104 29.4168H134.348L136.554 15.0335ZM112.384 25.5928H110.176L109.595 29.4168H105.555L107.761 15.0335H114.281C115.575 15.0335 116.658 15.2518 117.547 15.696C118.428 16.1158 119.073 16.731 119.462 17.5401C119.857 18.3324 119.971 19.2697 119.81 20.3536C119.648 21.3962 119.269 22.3106 118.654 23.0861C118.064 23.854 117.288 24.4616 116.319 24.8982L118.71 29.4168H114.388L112.384 25.5928ZM115.729 20.3536C115.834 19.6819 115.705 19.1644 115.341 18.7934C114.968 18.421 114.38 18.2439 113.547 18.2439H111.308L110.661 22.448H112.901C113.733 22.448 114.388 22.2694 114.864 21.9137C115.341 21.5504 115.632 21.0253 115.729 20.3536ZM132.595 26.2721L132.11 29.4168H120.651L122.849 15.0335H134.049L133.564 18.1782H126.364L125.991 20.6039H132.336L131.875 23.6449H125.531L125.127 26.2721H132.595ZM141.435 26.1668C142.655 26.1668 143.689 25.8187 144.53 25.1241C145.386 24.4204 145.904 23.4586 146.098 22.2206C146.283 20.9917 146.058 20.03 145.418 19.3262C144.788 18.6316 143.867 18.2836 142.638 18.2836H140.093L138.881 26.1668H141.435Z" fill="white"/>
<path d="M21.2871 26.5266C22.6997 26.5266 23.4837 26.0473 23.6362 25.0871C23.781 24.1208 23.1525 23.6414 21.7385 23.6414H18.3481L17.9045 26.5266H21.2871ZM19.2045 18.1091L18.7763 20.8585H21.5536C22.9184 20.8585 23.6686 20.3959 23.8056 19.4769C23.952 18.5656 23.3374 18.1091 21.9818 18.1091H19.2045ZM25.574 22.0187C26.3488 22.298 26.9218 22.7453 27.2854 23.3605C27.6566 23.9528 27.7783 24.6795 27.6412 25.5359C27.4471 26.7831 26.8017 27.7418 25.6865 28.4211C24.5728 29.1004 23.0709 29.4363 21.1654 29.4363H13.4559L15.6586 15.1995H22.9584C24.7822 15.1995 26.1147 15.543 26.9634 16.2223C27.8106 16.8864 28.1495 17.7809 27.9724 18.9243C27.8676 19.6036 27.6011 20.2112 27.1806 20.7547C26.7693 21.2829 26.2364 21.7057 25.574 22.0187Z" fill="white"/>
<path d="M41.0783 26.3266L40.6008 29.4363H29.1373L31.3323 15.1995H42.5308L42.0549 18.3168H34.8521L34.4808 20.715H40.8272L40.3589 23.7208H34.0126L33.6182 26.3266H41.0783Z" fill="white"/>
<path d="M48.7296 18.3977H44.3456L44.837 15.1995H57.6268L57.1338 18.3977H52.7746L51.0632 29.4363H47.0259L48.7296 18.3977Z" fill="white"/>
</svg>